<?xml version="1.0" encoding="UTF-8"?>
<svg xmlns="http://www.w3.org/2000/svg" xmlns:xlink="http://www.w3.org/1999/xlink" width="512px" height="512px" viewBox="0 0 512 512" version="1.1">
<g id="surface1">
<path style=" stroke:none;fill-rule:nonzero;fill:rgb(0%,0%,0%);fill-opacity:1;" d="M 362.667969 64 L 362.667969 21.332031 C 362.667969 9.558594 372.203125 0 384 0 C 395.796875 0 405.332031 9.558594 405.332031 21.332031 L 405.332031 64 C 405.332031 75.777344 395.796875 85.332031 384 85.332031 C 372.203125 85.332031 362.667969 75.777344 362.667969 64 Z M 106.667969 85.332031 C 118.464844 85.332031 128 75.777344 128 64 L 128 21.332031 C 128 9.558594 118.464844 0 106.667969 0 C 94.871094 0 85.332031 9.558594 85.332031 21.332031 L 85.332031 64 C 85.332031 75.777344 94.871094 85.332031 106.667969 85.332031 Z M 384 362.667969 L 384 298.667969 L 362.667969 298.667969 L 362.667969 384 L 426.667969 384 L 426.667969 362.667969 Z M 277.332031 373.332031 C 277.332031 426.261719 320.40625 469.332031 373.332031 469.332031 C 426.261719 469.332031 469.332031 426.261719 469.332031 373.332031 C 469.332031 320.40625 426.261719 277.332031 373.332031 277.332031 C 320.40625 277.332031 277.332031 320.40625 277.332031 373.332031 Z M 512 373.332031 C 512 449.921875 449.921875 512 373.332031 512 C 296.746094 512 234.667969 449.921875 234.667969 373.332031 C 234.667969 296.746094 296.746094 234.667969 373.332031 234.667969 C 449.921875 234.667969 512 296.746094 512 373.332031 Z M 208.277344 448 L 42.667969 448 L 42.667969 170.667969 L 448 170.667969 L 448 208.277344 C 463.507812 215.316406 477.84375 224.425781 490.667969 235.328125 L 490.667969 42.667969 L 426.667969 42.667969 L 426.667969 64 C 426.667969 92.074219 399.402344 113.898438 369.960938 104.40625 C 352.234375 98.6875 341.332031 80.703125 341.332031 62.078125 L 341.332031 42.667969 L 149.332031 42.667969 L 149.332031 64 C 149.332031 92.074219 122.070312 113.898438 92.628906 104.40625 C 74.902344 98.6875 64 80.703125 64 62.078125 L 64 42.667969 L 0 42.667969 L 0 490.667969 L 235.328125 490.667969 C 224.425781 477.84375 215.316406 463.507812 208.277344 448 Z M 208.277344 448 "/>
</g>
</svg>
