<?xml version="1.0" encoding="UTF-8"?>
<svg xmlns="http://www.w3.org/2000/svg" xmlns:xlink="http://www.w3.org/1999/xlink" width="512px" height="512px" viewBox="0 0 512 512" version="1.1">
<g id="surface1">
<path style=" stroke:none;fill-rule:evenodd;fill:rgb(0%,0%,0%);fill-opacity:1;" d="M 331.03125 512 L 82.582031 512 C 93.71875 447.253906 101.71875 380.542969 73.578125 340.734375 C 38.039062 290.453125 21.738281 239.574219 21.332031 193.898438 C 20.375 83.179688 111.59375 -0.535156 238.996094 0 C 393.367188 0.640625 437.996094 131.328125 447.488281 169.449219 C 454.742188 198.65625 428.332031 209.324219 443.945312 227.09375 C 456.660156 241.578125 466.027344 256.191406 482.113281 273.535156 C 488.339844 280.257812 490.753906 287.316406 490.667969 293.652344 C 490.539062 302.910156 484.457031 310.675781 474.710938 314.089844 C 465.558594 317.289062 458.496094 320.917969 448.789062 323.542969 C 445.695312 348.289062 437.675781 378.410156 431.765625 399.425781 C 416.042969 455.316406 369.984375 422.015625 348.96875 455.039062 C 339.882812 469.289062 335.316406 492.117188 331.03125 512 Z M 249.023438 106.667969 L 220.308594 106.667969 C 215.125 121.195312 213.652344 130.601562 202.347656 135.273438 C 191.039062 139.96875 183.402344 134.398438 169.386719 127.742188 L 149.078125 148.054688 C 155.710938 162.003906 161.300781 169.707031 156.609375 181.011719 C 151.9375 192.320312 142.527344 193.792969 128 198.953125 L 128 227.691406 C 142.507812 232.851562 151.9375 234.347656 156.609375 245.652344 C 161.34375 257.046875 155.605469 264.894531 149.078125 278.59375 L 169.386719 298.902344 C 183.296875 292.308594 191.039062 286.675781 202.347656 291.371094 L 202.347656 291.390625 C 213.632812 296.0625 215.125 305.40625 220.308594 320 L 249.023438 320 C 254.207031 305.449219 255.703125 296.085938 267.050781 291.347656 L 267.070312 291.347656 C 278.292969 286.675781 285.910156 292.246094 299.945312 298.902344 L 320.257812 278.59375 C 313.644531 264.703125 308.03125 256.960938 312.703125 245.652344 C 317.375 234.367188 326.828125 232.851562 341.332031 227.691406 L 341.332031 198.953125 C 326.65625 193.75 317.375 192.277344 312.726562 181.011719 C 308.03125 169.707031 313.601562 162.027344 320.257812 148.054688 L 299.945312 127.742188 C 286.058594 134.355469 278.316406 139.96875 266.988281 135.273438 C 255.703125 130.601562 254.230469 121.257812 249.023438 106.667969 Z M 234.667969 248.894531 C 215.039062 248.894531 199.105469 232.960938 199.105469 213.332031 C 199.105469 193.683594 215.039062 177.769531 234.667969 177.769531 C 254.292969 177.769531 270.230469 193.683594 270.230469 213.332031 C 270.230469 232.960938 254.292969 248.894531 234.667969 248.894531 Z M 234.667969 248.894531 "/>
</g>
</svg>
